<?xml version="1.0" encoding="UTF-8" standalone="no"?>
<!-- Created with Inkscape (http://www.inkscape.org/) -->

<svg
   xmlns:dc="http://purl.org/dc/elements/1.1/"
   xmlns:cc="http://creativecommons.org/ns#"
   xmlns:rdf="http://www.w3.org/1999/02/22-rdf-syntax-ns#"
   xmlns:svg="http://www.w3.org/2000/svg"
   xmlns="http://www.w3.org/2000/svg"
   xmlns:sodipodi="http://sodipodi.sourceforge.net/DTD/sodipodi-0.dtd"
   xmlns:inkscape="http://www.inkscape.org/namespaces/inkscape"
   width="92.604164mm"
   height="24.901384mm"
   viewBox="0 0 328.12499 88.23325"
   id="svg6482"
   version="1.1"
   inkscape:version="0.92.4 (f8dce91, 2019-08-02)"
   inkscape:export-filename="kuralabs-imagotype.png"
   inkscape:export-xdpi="269.79541"
   inkscape:export-ydpi="269.79541"
   sodipodi:docname="kuralabs-imagotype.svg">
  <defs
     id="defs6484">
    <clipPath
       clipPathUnits="userSpaceOnUse"
       id="clipPath5558">
      <path
         d="M 0,595.276 H 841.89 V 0 H 0 Z"
         id="path5560"
         inkscape:connector-curvature="0" />
    </clipPath>
  </defs>
  <sodipodi:namedview
     id="base"
     pagecolor="#e1ffe1"
     bordercolor="#666666"
     borderopacity="1.0"
     inkscape:pageopacity="0.64705882"
     inkscape:pageshadow="2"
     inkscape:zoom="4.9542859"
     inkscape:cx="175"
     inkscape:cy="57.636207"
     inkscape:document-units="px"
     inkscape:current-layer="layer1"
     showgrid="false"
     fit-margin-top="0"
     fit-margin-left="0"
     fit-margin-right="0"
     fit-margin-bottom="0"
     borderlayer="true"
     inkscape:showpageshadow="false"
     inkscape:window-width="1920"
     inkscape:window-height="1016"
     inkscape:window-x="0"
     inkscape:window-y="27"
     inkscape:window-maximized="1" />
  <metadata
     id="metadata6487">
    <rdf:RDF>
      <cc:Work
         rdf:about="">
        <dc:format>image/svg+xml</dc:format>
        <dc:type
           rdf:resource="http://purl.org/dc/dcmitype/StillImage" />
        <dc:title></dc:title>
      </cc:Work>
    </rdf:RDF>
  </metadata>
  <g
     inkscape:label="Layer 1"
     inkscape:groupmode="layer"
     id="layer1"
     transform="translate(-63.909884,-425.03647)">
    <rect
       id="rect150"
       width="66.277649"
       height="13.865616"
       x="82.98864"
       y="457.07648"
       style="fill:#ffffff;stroke-width:0.88606346" />
    <g
       id="g5302"
       transform="matrix(1.1814179,0,0,-1.1814179,167.81004,429.38881)">
      <path
         d="m 0,0 0.443,-5.195 -3.107,-5.877 -0.227,-3.992 -3.87,-6.753 -2.946,9.221 v 0.003 l 5.04,6.357 -0.667,4.603 -4.126,-3.615 -5.864,-0.882 -2.777,4.737 6.293,3.051 7.334,2.026 z"
         style="fill:#a9183f;fill-opacity:1;fill-rule:nonzero;stroke:none"
         id="path5304"
         inkscape:connector-curvature="0" />
    </g>
    <g
       id="g5306"
       transform="matrix(1.1814179,0,0,-1.1814179,161.50835,431.31784)">
      <path
         d="m 0,0 0.667,-4.603 -5.04,-6.357 v -0.003 l -3.3,-4.167 -2.317,10.633 5.864,0.882 z"
         style="fill:#201d1c;fill-opacity:1;fill-rule:nonzero;stroke:none"
         id="path5308"
         inkscape:connector-curvature="0" />
    </g>
    <g
       id="g5310"
       transform="matrix(1.1814179,0,0,-1.1814179,156.34201,444.2702)">
      <path
         d="M 0,0 2.946,-9.221 -3.3,-4.167 Z"
         style="fill:#201d1c;fill-opacity:1;fill-rule:nonzero;stroke:none"
         id="path5312"
         inkscape:connector-curvature="0" />
    </g>
    <g
       id="g5314"
       transform="matrix(1.1814179,0,0,-1.1814179,159.82282,455.16429)">
      <path
         d="M 0,0 -0.77,-16.217 -7.126,-5.961 -9.627,5.588 -9.303,8.667 -6.246,5.055 Z"
         style="fill:#90191f;fill-opacity:1;fill-rule:nonzero;stroke:none"
         id="path5316"
         inkscape:connector-curvature="0" />
    </g>
    <g
       id="g5318"
       transform="matrix(1.1814179,0,0,-1.1814179,151.40404,462.20718)">
      <path
         d="m 0,0 6.356,-10.256 -6.447,1.69 -9.343,5.281 2.416,3.158 3.624,1.383 -9.67,2.11 5.397,2.524 1.359,8.654 3.807,-2.995 z"
         style="fill:#192f4d;fill-opacity:1;fill-rule:nonzero;stroke:none"
         id="path5320"
         inkscape:connector-curvature="0" />
    </g>
    <g
       id="g5322"
       transform="matrix(1.1814179,0,0,-1.1814179,158.9136,474.32358)">
      <path
         d="m 0,0 -6.757,-11.057 -6.547,-4.702 -4.406,13.064 11.263,4.384 z"
         style="fill:#319288;fill-opacity:1;fill-rule:nonzero;stroke:none"
         id="path5324"
         inkscape:connector-curvature="0" />
    </g>
    <g
       id="g5326"
       transform="matrix(1.1814179,0,0,-1.1814179,149.70575,436.63079)">
      <path
         d="m 0,0 2.317,-10.633 -3.056,3.612 z"
         style="fill:#90191f;fill-opacity:1;fill-rule:nonzero;stroke:none"
         id="path5328"
         inkscape:connector-curvature="0" />
    </g>
    <g
       id="g5330"
       transform="matrix(1.1814179,0,0,-1.1814179,151.29676,472.32769)">
      <path
         d="m 0,0 -11.263,-4.385 -10.07,6.351 -0.017,0.041 10.68,2.913 1.327,0.362 z"
         style="fill:#1c4b4c;fill-opacity:1;fill-rule:nonzero;stroke:none"
         id="path5332"
         inkscape:connector-curvature="0" />
    </g>
    <g
       id="g5334"
       transform="matrix(1.1814179,0,0,-1.1814179,146.42578,431.03454)">
      <path
         d="M 0,0 2.776,-4.737 2.037,-11.758 -3.68,-4.999 Z"
         style="fill:#90191f;fill-opacity:1;fill-rule:nonzero;stroke:none"
         id="path5336"
         inkscape:connector-curvature="0" />
    </g>
    <g
       id="g5338"
       transform="matrix(1.1814179,0,0,-1.1814179,142.07851,436.93997)">
      <path
         d="M 0,0 5.717,-6.759 5.393,-9.838 1.586,-6.843 Z"
         style="fill:#152940;fill-opacity:1;fill-rule:nonzero;stroke:none"
         id="path5340"
         inkscape:connector-curvature="0" />
    </g>
    <g
       id="g5342"
       transform="matrix(1.1814179,0,0,-1.1814179,147.39489,460.72344)">
      <path
         d="m 0,0 -3.624,-1.383 -2.416,-3.158 -1.327,-0.361 -0.243,0.779 1.353,1.48 v 2.721 z"
         style="fill:#201d1c;fill-opacity:1;fill-rule:nonzero;stroke:none"
         id="path5344"
         inkscape:connector-curvature="0" />
    </g>
    <g
       id="g5346"
       transform="matrix(1.1814179,0,0,-1.1814179,147.39489,460.72344)">
      <path
         d="m 0,0 -6.257,0.078 -5.047,0.062 -2.16,-1.514 -0.913,-0.642 -3.597,-2.525 1.827,3.622 6.473,3.029 h 0.003 z"
         style="fill:#201d1c;fill-opacity:1;fill-rule:nonzero;stroke:none"
         id="path5348"
         inkscape:connector-curvature="0" />
    </g>
    <g
       id="g5350"
       transform="matrix(1.1814179,0,0,-1.1814179,146.42578,431.03454)">
      <path
         d="m 0,0 -3.68,-4.999 1.586,-6.843 -1.359,-8.654 -2.287,10.515 -6.774,6.852 6.401,2.285 3.38,-0.48 z"
         style="fill:#152940;fill-opacity:1;fill-rule:nonzero;stroke:none"
         id="path5352"
         inkscape:connector-curvature="0" />
    </g>
    <g
       id="g5354"
       transform="matrix(1.1814179,0,0,-1.1814179,137.9908,477.50785)">
      <path
         d="M 0,0 4.406,-13.063 -6.131,-4.64 -5.813,-4.201 -10.07,6.351 Z"
         style="fill:#308a88;fill-opacity:1;fill-rule:nonzero;stroke:none"
         id="path5356"
         inkscape:connector-curvature="0" />
    </g>
    <g
       id="g5358"
       transform="matrix(1.1814179,0,0,-1.1814179,143.19649,492.94131)">
      <path
         d="m 0,0 -3.207,-7.545 -3.116,10.717 -5.37,3.634 1.156,1.617 z"
         style="fill:#761c67;fill-opacity:1;fill-rule:nonzero;stroke:none"
         id="path5360"
         inkscape:connector-curvature="0" />
    </g>
    <g
       id="g5362"
       transform="matrix(1.1814179,0,0,-1.1814179,139.64409,442.82685)">
      <path
         d="m 0,0 2.287,-10.514 -6.393,3.848 -5.257,0.508 -1.637,3.762 4.227,9.249 z"
         style="fill:#1c425f;fill-opacity:1;fill-rule:nonzero;stroke:none"
         id="path5364"
         inkscape:connector-curvature="0" />
    </g>
    <g
       id="g5366"
       transform="matrix(1.1814179,0,0,-1.1814179,142.34611,455.24839)">
      <path
         d="M 0,0 -5.397,-2.524 H -5.4 l -6.474,-3.029 -1.826,-3.622 3.596,2.525 -0.31,-3.478 -3.363,-2.312 -2.027,5.023 4.154,4.042 1.546,4.172 -1.546,3.559 5.256,-0.507 z"
         style="fill:#ec511d;fill-opacity:1;fill-rule:nonzero;stroke:none"
         id="path5368"
         inkscape:connector-curvature="0" />
    </g>
    <g
       id="g5370"
       transform="matrix(1.1814179,0,0,-1.1814179,135.72603,489.19349)">
      <path
         d="m 0,0 3.116,-10.717 -2.446,-1.876 -7.92,9.667 -0.847,2.658 2.727,3.901 z"
         style="fill:#511643;fill-opacity:1;fill-rule:nonzero;stroke:none"
         id="path5372"
         inkscape:connector-curvature="0" />
    </g>
    <g
       id="g5374"
       transform="matrix(1.1814179,0,0,-1.1814179,139.20341,432.032)">
      <path
         d="m 0,0 -6.4,-2.285 -8.373,3.129 -4.748,1.889 -0.016,0.006 0.047,0.019 0.01,0.003 0.023,-0.003 z"
         style="fill:#192f4d;fill-opacity:1;fill-rule:nonzero;stroke:none"
         id="path5376"
         inkscape:connector-curvature="0" />
    </g>
    <g
       id="g5378"
       transform="matrix(1.1814179,0,0,-1.1814179,138.40383,465.59396)">
      <path
         d="m 0,0 0.243,-0.779 -10.68,-2.914 -0.003,0.009 3.363,2.312 0.31,3.478 0.913,0.643 v -2.07 l 1.797,-1.596 z"
         style="fill:#201d1c;fill-opacity:1;fill-rule:nonzero;stroke:none"
         id="path5380"
         inkscape:connector-curvature="0" />
    </g>
    <g
       id="g5382"
       transform="matrix(1.1814179,0,0,-1.1814179,127.16076,492.65055)">
      <path
         d="m 0,0 7.92,-9.667 -5.934,-2.371 -6.11,8.485 0.9,1.048 1.527,0.869 z"
         style="fill:#90191f;fill-opacity:1;fill-rule:nonzero;stroke:none"
         id="path5384"
         inkscape:connector-curvature="0" />
    </g>
    <g
       id="g5386"
       transform="matrix(1.1814179,0,0,-1.1814179,126.64849,445.65812)">
      <path
         d="m 0,0 -4.663,-10.196 4.066,11.1 -3.207,7.878 -0.342,3.596 8.373,-3.129 z"
         style="fill:#ed641b;fill-opacity:1;fill-rule:nonzero;stroke:none"
         id="path5388"
         inkscape:connector-curvature="0" />
    </g>
    <g
       id="g5390"
       transform="matrix(1.1814179,0,0,-1.1814179,126.09358,470.00466)">
      <path
         d="M 0,0 4.257,-10.552 3.939,-10.991 -8.324,-0.866 -4.197,10.402 -2.047,5.073 -0.021,0.05 -0.051,0.031 Z"
         style="fill:#ed641b;fill-opacity:1;fill-rule:nonzero;stroke:none"
         id="path5392"
         inkscape:connector-curvature="0" />
    </g>
    <g
       id="g5394"
       transform="matrix(1.1814179,0,0,-1.1814179,130.74765,482.98986)">
      <path
         d="M 0,0 -1.156,-1.618 -12.36,2.801 h -0.039 L -23.604,-1.618 -24.76,0 -12.496,10.125 h 0.232 z"
         style="fill:#171614;fill-opacity:1;fill-rule:nonzero;stroke:none"
         id="path5396"
         inkscape:connector-curvature="0" />
    </g>
    <g
       id="g5398"
       transform="matrix(1.1814179,0,0,-1.1814179,128.58211,450.10167)">
      <path
         d="M 0,0 1.547,-3.559 0,-7.731 l -4.153,-4.042 -2.151,5.329 0.004,0.009 4.663,10.196 z"
         style="fill:#f57f15;fill-opacity:1;fill-rule:nonzero;stroke:none"
         id="path5400"
         inkscape:connector-curvature="0" />
    </g>
    <g
       id="g5402"
       transform="matrix(1.1814179,0,0,-1.1814179,122.28858,496.8479)">
      <path
         d="m 0,0 6.11,-8.485 -2.233,-2.25 -4.753,-2.628 1.776,4.809 -6.083,5.774 0.003,0.004 2.127,0.651 0.737,1.134 z"
         style="fill:#b11d48;fill-opacity:1;fill-rule:nonzero;stroke:none"
         id="path5404"
         inkscape:connector-curvature="0" />
    </g>
    <g
       id="g5406"
       transform="matrix(1.1814179,0,0,-1.1814179,129.3817,484.90105)">
      <path
         d="m 0,0 -2.727,-3.901 -4.153,2.374 -4.31,-0.539 h -0.067 l -4.31,0.539 -4.154,-2.374 -2.726,3.901 11.204,4.419 h 0.039 z"
         style="fill:#3b1736;fill-opacity:1;fill-rule:nonzero;stroke:none"
         id="path5408"
         inkscape:connector-curvature="0" />
    </g>
    <g
       id="g5410"
       transform="matrix(1.1814179,0,0,-1.1814179,126.16044,489.51011)">
      <path
         d="M 0,0 0.847,-2.658 -4.847,-4.014 -5.594,-7.202 -6.33,-8.336 -8.457,-8.987 -8.46,-8.991 -8.464,-8.987 H -8.53 l -0.004,-0.004 -0.003,0.004 -2.127,0.651 -0.736,1.134 -0.747,3.188 -5.694,1.356 0.847,2.658 6.33,-0.043 2.134,-2.176 h 0.066 l 2.134,2.176 z"
         style="fill:#4f1336;fill-opacity:1;fill-rule:nonzero;stroke:none"
         id="path5412"
         inkscape:connector-curvature="0" />
    </g>
    <g
       id="g5414"
       transform="matrix(1.1814179,0,0,-1.1814179,127.16076,492.65055)">
      <path
         d="m 0,0 -1.697,-1.636 -1.527,-0.869 -0.9,-1.048 -2.316,-0.99 0.747,3.188 z"
         style="fill:#36172e;fill-opacity:1;fill-rule:nonzero;stroke:none"
         id="path5416"
         inkscape:connector-curvature="0" />
    </g>
    <g
       id="g5418"
       transform="matrix(1.1814179,0,0,-1.1814179,126.16044,489.51011)">
      <path
         d="M 0,0 -6.33,-0.043 -8.464,-2.219 H -8.53 l -2.134,2.176 -6.33,0.043 4.153,2.375 4.311,-0.54 h 0.066 l 4.311,0.54 z"
         style="fill:#22151d;fill-opacity:1;fill-rule:nonzero;stroke:none"
         id="path5420"
         inkscape:connector-curvature="0" />
    </g>
    <g
       id="g5422"
       transform="matrix(1.1814179,0,0,-1.1814179,122.15473,435.28315)">
      <path
         d="m 0,0 3.207,-7.878 -4.066,-11.1 -0.004,-0.009 -1.63,16.933 z"
         style="fill:#ec511d;fill-opacity:1;fill-rule:nonzero;stroke:none"
         id="path5424"
         inkscape:connector-curvature="0" />
    </g>
    <g
       id="g5426"
       transform="matrix(1.1814179,0,0,-1.1814179,116.16576,500.132)">
      <path
         d="M 0,0 6.083,-5.774 4.307,-10.583 0.05,-10.776 h -0.174 l -4.257,0.193 -1.776,4.809 L -0.074,0 -0.07,0.003 h 0.066 z"
         style="fill:#5b1217;fill-opacity:1;fill-rule:nonzero;stroke:none"
         id="path5428"
         inkscape:connector-curvature="0" />
    </g>
    <g
       id="g5430"
       transform="matrix(1.1814179,0,0,-1.1814179,121.74974,431.03454)">
      <path
         d="M 0,0 0.343,-3.596 -2.15,-5.65 -4.677,0 H -4.851 L -7.377,-5.65 -9.87,-3.596 -9.527,0 -4.78,1.889 -4.764,1.895 -4.747,1.889 Z"
         style="fill:#eb3045;fill-opacity:1;fill-rule:nonzero;stroke:none"
         id="path5432"
         inkscape:connector-curvature="0" />
    </g>
    <g
       id="g5434"
       transform="matrix(1.1814179,0,0,-1.1814179,119.20922,437.70942)">
      <path
         d="M 0,0 1.63,-16.934 -2.497,-28.202 H -2.729 L -6.856,-16.934 -5.227,0 -2.703,-9.349 h 0.18 z"
         style="fill:#d21e27;fill-opacity:1;fill-rule:nonzero;stroke:none"
         id="path5436"
         inkscape:connector-curvature="0" />
    </g>
    <g
       id="g5438"
       transform="matrix(1.1814179,0,0,-1.1814179,116.22461,431.03454)">
      <path
         d="m 0,0 2.526,-5.65 -2.523,-9.349 h -0.18 L -2.7,-5.65 -0.174,0 Z"
         style="fill:#e1252d;fill-opacity:1;fill-rule:nonzero;stroke:none"
         id="path5440"
         inkscape:connector-curvature="0" />
    </g>
    <g
       id="g5442"
       transform="matrix(1.1814179,0,0,-1.1814179,116.12194,428.79574)">
      <path
         d="m 0,0 -0.017,-0.006 -4.747,-1.889 -8.373,-3.129 -6.4,2.285 19.457,2.758 0.023,0.002 0.01,-0.002 z"
         style="fill:#192f4d;fill-opacity:1;fill-rule:nonzero;stroke:none"
         id="path5444"
         inkscape:connector-curvature="0" />
    </g>
    <g
       id="g5446"
       transform="matrix(1.1814179,0,0,-1.1814179,116.0781,500.132)">
      <path
         d="m 0,0 -6.083,-5.774 1.776,-4.809 -4.753,2.627 -2.233,2.25 6.11,8.486 2.317,-0.991 0.736,-1.134 2.127,-0.652 z"
         style="fill:#b11d48;fill-opacity:1;fill-rule:nonzero;stroke:none"
         id="path5448"
         inkscape:connector-curvature="0" />
    </g>
    <g
       id="g5450"
       transform="matrix(1.1814179,0,0,-1.1814179,111.10894,457.71508)">
      <path
         d="m 0,0 4.127,-11.269 -12.264,-10.125 -0.317,0.44 4.257,10.552 0.051,0.031 -0.031,0.018 2.027,5.024 z"
         style="fill:#ed641b;fill-opacity:1;fill-rule:nonzero;stroke:none"
         id="path5452"
         inkscape:connector-curvature="0" />
    </g>
    <g
       id="g5454"
       transform="matrix(1.1814179,0,0,-1.1814179,113.03453,437.70942)">
      <path
         d="m 0,0 -1.63,-16.934 -0.004,0.01 -4.066,11.1 3.207,7.878 z"
         style="fill:#ec511d;fill-opacity:1;fill-rule:nonzero;stroke:none"
         id="path5456"
         inkscape:connector-curvature="0" />
    </g>
    <g
       id="g5458"
       transform="matrix(1.1814179,0,0,-1.1814179,111.80929,494.25197)">
      <path
         d="m 0,0 0.747,-3.188 -2.316,0.991 -0.901,1.047 -1.526,0.869 -1.697,1.636 z"
         style="fill:#36172e;fill-opacity:1;fill-rule:nonzero;stroke:none"
         id="path5460"
         inkscape:connector-curvature="0" />
    </g>
    <g
       id="g5462"
       transform="matrix(1.1814179,0,0,-1.1814179,111.10433,457.70421)">
      <path
         d="m 0,0 0.004,-0.009 -2.15,-5.329 -4.154,4.042 -1.547,4.172 1.547,3.559 1.637,3.761 z"
         style="fill:#f57f15;fill-opacity:1;fill-rule:nonzero;stroke:none"
         id="path5464"
         inkscape:connector-curvature="0" />
    </g>
    <g
       id="g5466"
       transform="matrix(1.1814179,0,0,-1.1814179,105.59527,445.65812)">
      <path
         d="M 0,0 -4.227,9.249 4.146,12.378 3.804,8.782 0.597,0.904 l 4.066,-11.1 z"
         style="fill:#ed641b;fill-opacity:1;fill-rule:nonzero;stroke:none"
         id="path5468"
         inkscape:connector-curvature="0" />
    </g>
    <g
       id="g5470"
       transform="matrix(1.1814179,0,0,-1.1814179,108.89142,495.61048)">
      <path
         d="m 0,0 0.9,-1.047 -6.11,-8.486 -5.934,2.371 7.92,9.667 1.698,-1.636 z"
         style="fill:#90191f;fill-opacity:1;fill-rule:nonzero;stroke:none"
         id="path5472"
         inkscape:connector-curvature="0" />
    </g>
    <g
       id="g5474"
       transform="matrix(1.1814179,0,0,-1.1814179,103.66163,459.23568)">
      <path
         d="M 0,0 4.153,-4.042 2.127,-9.065 -1.236,-6.753 -1.547,-3.275 2.05,-5.8 0.224,-2.178 -6.25,0.851 H -6.253 L -11.65,3.375 -5.257,7.224 0,7.731 -1.547,4.172 Z"
         style="fill:#ec511d;fill-opacity:1;fill-rule:nonzero;stroke:none"
         id="path5476"
         inkscape:connector-curvature="0" />
    </g>
    <g
       id="g5478"
       transform="matrix(1.1814179,0,0,-1.1814179,106.1744,469.94583)">
      <path
         d="m 0,0 -0.004,-0.009 -10.68,2.913 0.244,0.78 4.056,-0.917 1.797,1.596 V 6.432 L -3.674,5.79 -3.363,2.312 Z"
         style="fill:#201d1c;fill-opacity:1;fill-rule:nonzero;stroke:none"
         id="path5480"
         inkscape:connector-curvature="0" />
    </g>
    <g
       id="g5482"
       transform="matrix(1.1814179,0,0,-1.1814179,106.16978,469.9567)">
      <path
         d="m 0,0 -0.017,-0.041 -10.07,-6.351 -11.263,4.385 9.343,5.282 1.327,-0.361 z"
         style="fill:#1c4b4c;fill-opacity:1;fill-rule:nonzero;stroke:none"
         id="path5484"
         inkscape:connector-curvature="0" />
    </g>
    <g
       id="g5486"
       transform="matrix(1.1814179,0,0,-1.1814179,106.15017,470.00466)">
      <path
         d="m 0,0 -4.257,-10.552 0.318,-0.439 -10.538,-8.424 4.407,13.064 z"
         style="fill:#308a88;fill-opacity:1;fill-rule:nonzero;stroke:none"
         id="path5488"
         inkscape:connector-curvature="0" />
    </g>
    <g
       id="g5490"
       transform="matrix(1.1814179,0,0,-1.1814179,103.92581,461.80917)">
      <path
         d="m 0,0 1.826,-3.622 -3.597,2.525 -0.913,0.642 -2.16,1.514 -5.047,-0.062 -6.256,-0.078 9.67,2.11 h 0.003 z"
         style="fill:#201d1c;fill-opacity:1;fill-rule:nonzero;stroke:none"
         id="path5492"
         inkscape:connector-curvature="0" />
    </g>
    <g
       id="g5494"
       transform="matrix(1.1814179,0,0,-1.1814179,102.86205,484.90105)">
      <path
         d="M 0,0 2.727,-3.901 1.88,-6.56 l -7.92,-9.667 -2.446,1.876 3.116,10.718 z"
         style="fill:#511643;fill-opacity:1;fill-rule:nonzero;stroke:none"
         id="path5496"
         inkscape:connector-curvature="0" />
    </g>
    <g
       id="g5498"
       transform="matrix(1.1814179,0,0,-1.1814179,100.60188,434.73107)">
      <path
         d="m 0,0 4.227,-9.249 -1.637,-3.761 -5.257,-0.508 -6.394,-3.849 2.288,10.514 z"
         style="fill:#1c425f;fill-opacity:1;fill-rule:nonzero;stroke:none"
         id="path5500"
         inkscape:connector-curvature="0" />
    </g>
    <g
       id="g5502"
       transform="matrix(1.1814179,0,0,-1.1814179,101.4961,482.98986)">
      <path
         d="m 0,0 1.156,-1.618 -5.37,-3.633 -3.116,-10.717 -3.207,7.545 z"
         style="fill:#761c67;fill-opacity:1;fill-rule:nonzero;stroke:none"
         id="path5504"
         inkscape:connector-curvature="0" />
    </g>
    <g
       id="g5506"
       transform="matrix(1.1814179,0,0,-1.1814179,100.60188,434.73107)">
      <path
         d="m 0,0 -6.773,-6.853 -2.288,-10.514 -1.359,8.654 1.586,6.843 -3.68,4.999 2.734,-1.324 3.38,0.48 z"
         style="fill:#152940;fill-opacity:1;fill-rule:nonzero;stroke:none"
         id="path5508"
         inkscape:connector-curvature="0" />
    </g>
    <g
       id="g5510"
       transform="matrix(1.1814179,0,0,-1.1814179,96.274355,458.23089)">
      <path
         d="m 0,0 -9.671,-2.11 3.624,-1.383 2.416,-3.157 -9.343,-5.282 -6.447,-1.69 6.357,10.256 2.5,11.55 3.807,2.994 1.36,-8.654 z"
         style="fill:#192f4d;fill-opacity:1;fill-rule:nonzero;stroke:none"
         id="path5512"
         inkscape:connector-curvature="0" />
    </g>
    <g
       id="g5514"
       transform="matrix(1.1814179,0,0,-1.1814179,94.252949,477.50785)">
      <path
         d="m 0,0 -4.406,-13.063 -6.547,4.702 -6.757,11.056 6.447,1.69 z"
         style="fill:#319288;fill-opacity:1;fill-rule:nonzero;stroke:none"
         id="path5516"
         inkscape:connector-curvature="0" />
    </g>
    <g
       id="g5518"
       transform="matrix(1.1814179,0,0,-1.1814179,92.240881,463.84546)">
      <path
         d="M 0,0 1.354,-1.48 1.11,-2.259 -0.217,-1.898 -2.633,1.259 -6.257,2.643 0,2.721 Z"
         style="fill:#201d1c;fill-opacity:1;fill-rule:nonzero;stroke:none"
         id="path5520"
         inkscape:connector-curvature="0" />
    </g>
    <g
       id="g5522"
       transform="matrix(1.1814179,0,0,-1.1814179,85.818098,431.03454)">
      <path
         d="m 0,0 3.68,-4.999 -5.717,-6.759 -0.739,7.021 z"
         style="fill:#90191f;fill-opacity:1;fill-rule:nonzero;stroke:none"
         id="path5524"
         inkscape:connector-curvature="0" />
    </g>
    <g
       id="g5526"
       transform="matrix(1.1814179,0,0,-1.1814179,90.165366,436.93997)">
      <path
         d="m 0,0 -1.586,-6.843 -3.808,-2.995 -0.323,3.079 z"
         style="fill:#152940;fill-opacity:1;fill-rule:nonzero;stroke:none"
         id="path5528"
         inkscape:connector-curvature="0" />
    </g>
    <g
       id="g5530"
       transform="matrix(1.1814179,0,0,-1.1814179,85.818098,431.03454)">
      <path
         d="m 0,0 -2.776,-4.737 -5.865,0.882 -4.126,3.615 -0.667,-4.603 5.04,-6.357 v -0.003 l -2.946,-9.221 -3.87,6.753 -0.227,3.992 -3.107,5.877 0.443,5.195 4.474,3.684 7.334,-2.026 z"
         style="fill:#a9183f;fill-opacity:1;fill-rule:nonzero;stroke:none"
         id="path5532"
         inkscape:connector-curvature="0" />
    </g>
    <g
       id="g5534"
       transform="matrix(1.1814179,0,0,-1.1814179,83.411426,444.92541)">
      <path
         d="m 0,0 0.323,-3.079 -2.5,-11.549 -6.356,-10.256 -0.77,16.217 6.246,5.055 z"
         style="fill:#90191f;fill-opacity:1;fill-rule:nonzero;stroke:none"
         id="path5536"
         inkscape:connector-curvature="0" />
    </g>
    <g
       id="g5538"
       transform="matrix(1.1814179,0,0,-1.1814179,82.538009,436.63079)">
      <path
         d="m 0,0 0.739,-7.021 -3.056,-3.612 z"
         style="fill:#90191f;fill-opacity:1;fill-rule:nonzero;stroke:none"
         id="path5540"
         inkscape:connector-curvature="0" />
    </g>
    <g
       id="g5542"
       transform="matrix(1.1814179,0,0,-1.1814179,82.538009,436.63079)">
      <path
         d="m 0,0 -2.317,-10.633 -3.3,4.167 v 0.003 l -5.04,6.357 0.667,4.603 4.126,-3.615 z"
         style="fill:#201d1c;fill-opacity:1;fill-rule:nonzero;stroke:none"
         id="path5544"
         inkscape:connector-curvature="0" />
    </g>
    <g
       id="g5546"
       transform="matrix(1.1814179,0,0,-1.1814179,75.901748,444.2702)">
      <path
         d="M 0,0 3.3,-4.167 -2.946,-9.221 Z"
         style="fill:#201d1c;fill-opacity:1;fill-rule:nonzero;stroke:none"
         id="path5548"
         inkscape:connector-curvature="0" />
    </g>
    <path
       inkscape:connector-curvature="0"
       id="path5552"
       style="fill:#ffffff;fill-opacity:1;fill-rule:nonzero;stroke:none;stroke-width:0.94513434"
       d="m 213.08587,425.65353 h 9.28712 v 18.63332 l 17.1282,-18.63332 h 11.21756 l -17.18727,18.08632 17.97291,24.54042 H 240.3459 l -13.08656,-18.14658 -4.88635,5.11554 v 13.03104 h -9.28712 z" />
    <g
       id="g5562"
       transform="matrix(1.1814179,0,0,-1.1814179,260.02289,450.01164)"
       style="fill:#ffffff">
      <path
         d="M 0,0 V 20.618 H 7.861 V 0.207 c 0,-5.877 2.91,-8.918 7.708,-8.918 4.799,0 7.709,2.938 7.709,8.659 v 20.67 H 31.14 V 0.258 C 31.14,-10.669 25.065,-16.03 15.468,-16.03 5.871,-16.03 0,-10.618 0,0"
         style="fill:#ffffff;fill-opacity:1;fill-rule:nonzero;stroke:none"
         id="path5564"
         inkscape:connector-curvature="0" />
    </g>
    <g
       id="g5566"
       transform="matrix(1.1814179,0,0,-1.1814179,326.2169,446.35775)"
       style="fill:#ffffff">
      <path
         d="m 0,0 c 3.828,0 6.023,2.062 6.023,5.103 v 0.103 c 0,3.401 -2.347,5.154 -6.176,5.154 H -7.964 V 0 Z M -15.825,17.525 H 0.51 c 4.544,0 8.066,-1.289 10.414,-3.66 1.991,-2.01 3.063,-4.845 3.063,-8.247 V 5.515 c 0,-5.825 -3.114,-9.484 -7.657,-11.185 l 8.73,-12.886 H 5.87 L -1.787,-7.01 h -6.177 v -11.546 h -7.861 z"
         style="fill:#ffffff;fill-opacity:1;fill-rule:nonzero;stroke:none"
         id="path5568"
         inkscape:connector-curvature="0" />
    </g>
    <g
       id="g5570"
       transform="matrix(1.1814179,0,0,-1.1814179,375.14769,450.43861)"
       style="fill:#ffffff">
      <path
         d="M 0,0 -4.747,11.701 -9.495,0 Z m -8.271,21.237 h 7.25 L 14.294,-15.102 H 6.075 l -3.267,8.093 h -15.111 l -3.266,-8.093 h -8.016 z"
         style="fill:#ffffff;fill-opacity:1;fill-rule:nonzero;stroke:none"
         id="path5572"
         inkscape:connector-curvature="0" />
    </g>
    <g
       id="g5574"
       transform="matrix(1.1814179,0,0,-1.1814179,225.64068,487.90586)"
       style="fill:#ffffff">
      <path
         d="m 0,0 h 1.952 v -19.163 h 9.758 v -1.774 H 0 Z"
         style="fill:#ffffff;fill-opacity:1;fill-rule:nonzero;stroke:none"
         id="path5576"
         inkscape:connector-curvature="0" />
    </g>
    <g
       id="g5578"
       transform="matrix(1.1814179,0,0,-1.1814179,279.03758,490.42157)"
       style="fill:#ffffff">
      <path
         d="m 0,0 -4.879,-11.474 h 9.61 z M -0.916,2.129 H 1.095 L 9.907,-18.807 H 7.719 l -2.278,5.559 H -5.647 l -2.367,-5.559 h -2.04 z"
         style="fill:#ffffff;fill-opacity:1;fill-rule:nonzero;stroke:none"
         id="path5580"
         inkscape:connector-curvature="0" />
    </g>
    <g
       id="g5582"
       transform="matrix(1.1814179,0,0,-1.1814179,318.78,510.5449)"
       style="fill:#ffffff">
      <path
         d="M 0,0 H 4.466 C 5.608,0 6.53,0.138 7.23,0.414 7.93,0.69 8.468,1.035 8.842,1.449 9.216,1.863 9.468,2.301 9.596,2.765 9.724,3.228 9.788,3.647 9.788,4.022 9.788,4.791 9.641,5.451 9.345,6.003 9.049,6.555 8.665,7.003 8.191,7.349 7.718,7.693 7.181,7.944 6.58,8.103 5.979,8.26 5.372,8.339 4.761,8.339 H 0 Z m 0,10.114 h 4.052 c 1.005,0 1.823,0.123 2.454,0.369 0.631,0.246 1.124,0.547 1.478,0.902 0.355,0.355 0.592,0.735 0.71,1.138 0.119,0.404 0.177,0.774 0.177,1.11 0,0.728 -0.123,1.335 -0.369,1.818 -0.247,0.483 -0.576,0.867 -0.99,1.153 -0.415,0.286 -0.898,0.488 -1.45,0.607 -0.552,0.118 -1.133,0.177 -1.745,0.177 H 0 Z m -1.951,9.049 h 6.032 c 0.788,0 1.587,-0.065 2.396,-0.193 0.807,-0.128 1.532,-0.394 2.172,-0.799 0.641,-0.404 1.164,-0.965 1.568,-1.685 0.404,-0.72 0.606,-1.671 0.606,-2.853 0,-1.065 -0.315,-1.992 -0.946,-2.78 C 9.246,10.064 8.31,9.542 7.067,9.285 V 9.226 C 7.758,9.167 8.389,9.005 8.96,8.738 9.532,8.472 10.025,8.117 10.438,7.674 10.853,7.23 11.173,6.703 11.399,6.092 11.626,5.48 11.74,4.811 11.74,4.081 11.74,2.878 11.508,1.897 11.045,1.139 10.581,0.379 10,-0.217 9.301,-0.65 8.601,-1.084 7.841,-1.38 7.023,-1.538 6.205,-1.696 5.441,-1.774 4.731,-1.774 h -6.682 z"
         style="fill:#ffffff;fill-opacity:1;fill-rule:nonzero;stroke:none"
         id="path5584"
         inkscape:connector-curvature="0" />
    </g>
    <g
       id="g5586"
       transform="matrix(1.1814179,0,0,-1.1814179,364.13534,508.06439)"
       style="fill:#ffffff">
      <path
         d="m 0,0 c 0.512,-0.888 1.178,-1.548 1.996,-1.981 0.817,-0.434 1.749,-0.651 2.794,-0.651 0.65,0 1.262,0.098 1.834,0.296 0.571,0.197 1.068,0.473 1.493,0.828 0.423,0.355 0.759,0.783 1.006,1.286 0.246,0.503 0.369,1.069 0.369,1.701 0,0.729 -0.153,1.33 -0.459,1.803 C 8.728,3.755 8.319,4.145 7.807,4.45 7.294,4.756 6.717,5.017 6.076,5.234 5.436,5.451 4.775,5.667 4.096,5.884 3.415,6.101 2.755,6.347 2.114,6.624 1.474,6.9 0.896,7.26 0.384,7.703 c -0.513,0.444 -0.922,1.001 -1.227,1.671 -0.305,0.67 -0.458,1.498 -0.458,2.484 0,0.927 0.182,1.749 0.546,2.469 0.365,0.719 0.859,1.32 1.479,1.804 0.621,0.483 1.336,0.848 2.144,1.094 0.809,0.247 1.656,0.37 2.543,0.37 1.144,0 2.203,-0.202 3.179,-0.607 0.976,-0.404 1.818,-1.079 2.528,-2.025 L 9.434,13.75 C 8.94,14.44 8.363,14.958 7.703,15.303 7.043,15.647 6.259,15.82 5.352,15.82 4.721,15.82 4.12,15.737 3.548,15.569 2.977,15.401 2.479,15.155 2.055,14.83 1.631,14.504 1.29,14.095 1.034,13.603 0.778,13.11 0.65,12.528 0.65,11.858 0.65,10.813 0.916,10.01 1.448,9.448 1.981,8.886 2.646,8.443 3.444,8.117 4.243,7.792 5.11,7.506 6.047,7.26 6.983,7.013 7.851,6.683 8.649,6.269 9.448,5.855 10.113,5.278 10.646,4.539 11.178,3.8 11.443,2.78 11.443,1.479 11.443,0.532 11.267,-0.306 10.912,-1.035 10.557,-1.765 10.078,-2.381 9.478,-2.883 8.876,-3.386 8.181,-3.766 7.393,-4.021 6.604,-4.278 5.785,-4.406 4.938,-4.406 c -1.379,0 -2.652,0.241 -3.815,0.724 -1.163,0.483 -2.158,1.297 -2.986,2.44 z"
         style="fill:#ffffff;fill-opacity:1;fill-rule:nonzero;stroke:none"
         id="path5588"
         inkscape:connector-curvature="0" />
    </g>
  </g>
</svg>
