<?xml version="1.0" encoding="UTF-8" standalone="no"?>
<!-- Created with Inkscape (http://www.inkscape.org/) -->

<svg
   xmlns:dc="http://purl.org/dc/elements/1.1/"
   xmlns:cc="http://creativecommons.org/ns#"
   xmlns:rdf="http://www.w3.org/1999/02/22-rdf-syntax-ns#"
   xmlns:svg="http://www.w3.org/2000/svg"
   xmlns="http://www.w3.org/2000/svg"
   xmlns:sodipodi="http://sodipodi.sourceforge.net/DTD/sodipodi-0.dtd"
   xmlns:inkscape="http://www.inkscape.org/namespaces/inkscape"
   width="40.195995mm"
   height="33.804226mm"
   viewBox="0 0 142.42676 119.77875"
   id="svg5310"
   version="1.1"
   inkscape:version="0.91 r13725"
   sodipodi:docname="kuralabs-isotype.svg"
   inkscape:export-filename="kuralabs-isotype.png"
   inkscape:export-xdpi="270"
   inkscape:export-ydpi="270">
  <defs
     id="defs5312" />
  <sodipodi:namedview
     id="base"
     pagecolor="#ffffff"
     bordercolor="#666666"
     borderopacity="1.0"
     inkscape:pageopacity="0.0"
     inkscape:pageshadow="2"
     inkscape:zoom="14.518435"
     inkscape:cx="71.213376"
     inkscape:cy="59.889375"
     inkscape:document-units="px"
     inkscape:current-layer="layer1"
     showgrid="false"
     borderlayer="true"
     inkscape:showpageshadow="false"
     fit-margin-top="0"
     fit-margin-left="0"
     fit-margin-right="0"
     fit-margin-bottom="0"
     inkscape:window-width="3840"
     inkscape:window-height="2026"
     inkscape:window-x="0"
     inkscape:window-y="60"
     inkscape:window-maximized="1" />
  <metadata
     id="metadata5315">
    <rdf:RDF>
      <cc:Work
         rdf:about="">
        <dc:format>image/svg+xml</dc:format>
        <dc:type
           rdf:resource="http://purl.org/dc/dcmitype/StillImage" />
        <dc:title />
      </cc:Work>
    </rdf:RDF>
  </metadata>
  <g
     inkscape:label="Layer 1"
     inkscape:groupmode="layer"
     id="layer1"
     transform="translate(-385.92948,-503.9014)">
    <rect
       style="opacity:1;fill:#ffffff;fill-opacity:1;stroke:none;stroke-width:2;stroke-miterlimit:4;stroke-dasharray:none;stroke-opacity:1"
       id="rect3458"
       width="70.737656"
       height="34.92112"
       x="421.77402"
       y="546.3302" />
    <g
       id="g5610">
      <g
         transform="matrix(1.25,0,0,-1.25,511.86211,521.0914)"
         id="g170">
        <path
           inkscape:connector-curvature="0"
           id="path172"
           style="fill:#a9183f;fill-opacity:1;fill-rule:nonzero;stroke:none"
           d="m 0,0 0.443,-5.195 -3.107,-5.877 -0.227,-3.992 -3.87,-6.753 -2.946,9.221 0,0.003 5.04,6.357 -0.667,4.603 -4.126,-3.615 -5.864,-0.882 -2.777,4.737 6.293,3.051 7.334,2.026 L 0,0 Z" />
      </g>
      <g
         transform="matrix(1.25,0,0,-1.25,505.19461,523.13241)"
         id="g174">
        <path
           inkscape:connector-curvature="0"
           id="path176"
           style="fill:#201d1c;fill-opacity:1;fill-rule:nonzero;stroke:none"
           d="m 0,0 0.667,-4.603 -5.04,-6.357 0,-0.003 -3.3,-4.167 -2.317,10.633 5.864,0.882 L 0,0 Z" />
      </g>
      <g
         transform="matrix(1.25,0,0,-1.25,499.72836,536.83666)"
         id="g178">
        <path
           inkscape:connector-curvature="0"
           id="path180"
           style="fill:#201d1c;fill-opacity:1;fill-rule:nonzero;stroke:none"
           d="M 0,0 2.946,-9.221 -3.3,-4.167 0,0 Z" />
      </g>
      <g
         transform="matrix(1.25,0,0,-1.25,503.41123,548.36316)"
         id="g182">
        <path
           inkscape:connector-curvature="0"
           id="path184"
           style="fill:#90191f;fill-opacity:1;fill-rule:nonzero;stroke:none"
           d="M 0,0 -0.77,-16.217 -7.126,-5.961 -9.627,5.588 -9.303,8.667 -6.246,5.055 0,0 Z" />
      </g>
      <g
         transform="matrix(1.25,0,0,-1.25,494.50373,555.8149)"
         id="g186">
        <path
           inkscape:connector-curvature="0"
           id="path188"
           style="fill:#192f4d;fill-opacity:1;fill-rule:nonzero;stroke:none"
           d="m 0,0 6.356,-10.256 -6.447,1.69 -9.343,5.281 2.416,3.158 3.624,1.383 -9.67,2.11 5.397,2.524 1.359,8.654 3.807,-2.995 L 0,0 Z" />
      </g>
      <g
         transform="matrix(1.25,0,0,-1.25,502.44923,568.63466)"
         id="g190">
        <path
           inkscape:connector-curvature="0"
           id="path192"
           style="fill:#319288;fill-opacity:1;fill-rule:nonzero;stroke:none"
           d="M 0,0 -6.757,-11.057 -13.304,-15.759 -17.71,-2.695 -6.447,1.689 0,0 Z" />
      </g>
      <g
         transform="matrix(1.25,0,0,-1.25,492.70686,528.75378)"
         id="g194">
        <path
           inkscape:connector-curvature="0"
           id="path196"
           style="fill:#90191f;fill-opacity:1;fill-rule:nonzero;stroke:none"
           d="M 0,0 2.317,-10.633 -0.739,-7.021 0,0 Z" />
      </g>
      <g
         transform="matrix(1.25,0,0,-1.25,494.39023,566.52291)"
         id="g198">
        <path
           inkscape:connector-curvature="0"
           id="path200"
           style="fill:#1c4b4c;fill-opacity:1;fill-rule:nonzero;stroke:none"
           d="M 0,0 -11.263,-4.385 -21.333,1.966 -21.35,2.007 -10.67,4.92 -9.343,5.282 0,0 Z" />
      </g>
      <g
         transform="matrix(1.25,0,0,-1.25,489.23648,522.83266)"
         id="g202">
        <path
           inkscape:connector-curvature="0"
           id="path204"
           style="fill:#90191f;fill-opacity:1;fill-rule:nonzero;stroke:none"
           d="M 0,0 2.776,-4.737 2.037,-11.758 -3.68,-4.999 0,0 Z" />
      </g>
      <g
         transform="matrix(1.25,0,0,-1.25,484.63685,529.08091)"
         id="g206">
        <path
           inkscape:connector-curvature="0"
           id="path208"
           style="fill:#152940;fill-opacity:1;fill-rule:nonzero;stroke:none"
           d="M 0,0 5.717,-6.759 5.393,-9.838 1.586,-6.843 0,0 Z" />
      </g>
      <g
         transform="matrix(1.25,0,0,-1.25,490.26185,554.24503)"
         id="g210">
        <path
           inkscape:connector-curvature="0"
           id="path212"
           style="fill:#201d1c;fill-opacity:1;fill-rule:nonzero;stroke:none"
           d="m 0,0 -3.624,-1.383 -2.416,-3.158 -1.327,-0.361 -0.243,0.779 1.353,1.48 0,2.721 L 0,0 Z" />
      </g>
      <g
         transform="matrix(1.25,0,0,-1.25,490.26185,554.24503)"
         id="g214">
        <path
           inkscape:connector-curvature="0"
           id="path216"
           style="fill:#201d1c;fill-opacity:1;fill-rule:nonzero;stroke:none"
           d="m 0,0 -6.257,0.078 -5.047,0.062 -2.16,-1.514 -0.913,-0.642 -3.597,-2.525 1.827,3.622 6.473,3.029 0.003,0 L 0,0 Z" />
      </g>
      <g
         transform="matrix(1.25,0,0,-1.25,489.23648,522.83266)"
         id="g218">
        <path
           inkscape:connector-curvature="0"
           id="path220"
           style="fill:#152940;fill-opacity:1;fill-rule:nonzero;stroke:none"
           d="m 0,0 -3.68,-4.999 1.586,-6.843 -1.359,-8.654 -2.287,10.515 -6.774,6.852 6.401,2.285 3.38,-0.48 L 0,0 Z" />
      </g>
      <g
         transform="matrix(1.25,0,0,-1.25,480.31185,572.00378)"
         id="g222">
        <path
           inkscape:connector-curvature="0"
           id="path224"
           style="fill:#308a88;fill-opacity:1;fill-rule:nonzero;stroke:none"
           d="M 0,0 4.406,-13.063 -6.131,-4.64 -5.813,-4.201 -10.07,6.351 0,0 Z" />
      </g>
      <g
         transform="matrix(1.25,0,0,-1.25,485.81973,588.33316)"
         id="g226">
        <path
           inkscape:connector-curvature="0"
           id="path228"
           style="fill:#761c67;fill-opacity:1;fill-rule:nonzero;stroke:none"
           d="m 0,0 -3.207,-7.545 -3.116,10.717 -5.37,3.634 1.156,1.617 L 0,0 Z" />
      </g>
      <g
         transform="matrix(1.25,0,0,-1.25,482.06111,535.30953)"
         id="g230">
        <path
           inkscape:connector-curvature="0"
           id="path232"
           style="fill:#1c425f;fill-opacity:1;fill-rule:nonzero;stroke:none"
           d="M 0,0 2.287,-10.514 -4.106,-6.666 -9.363,-6.158 -11,-2.396 -6.773,6.853 0,0 Z" />
      </g>
      <g
         transform="matrix(1.25,0,0,-1.25,484.91998,548.45215)"
         id="g234">
        <path
           inkscape:connector-curvature="0"
           id="path236"
           style="fill:#ec511d;fill-opacity:1;fill-rule:nonzero;stroke:none"
           d="m 0,0 -5.397,-2.524 -0.003,0 -6.474,-3.029 -1.826,-3.622 3.596,2.525 -0.31,-3.478 -3.363,-2.312 -2.027,5.023 4.154,4.042 1.546,4.172 L -11.65,4.356 -6.394,3.849 0,0 Z" />
      </g>
      <g
         transform="matrix(1.25,0,0,-1.25,477.91561,584.36778)"
         id="g238">
        <path
           inkscape:connector-curvature="0"
           id="path240"
           style="fill:#511643;fill-opacity:1;fill-rule:nonzero;stroke:none"
           d="M 0,0 3.116,-10.717 0.67,-12.593 -7.25,-2.926 -8.097,-0.268 -5.37,3.633 0,0 Z" />
      </g>
      <g
         transform="matrix(1.25,0,0,-1.25,481.59485,523.88803)"
         id="g242">
        <path
           inkscape:connector-curvature="0"
           id="path244"
           style="fill:#192f4d;fill-opacity:1;fill-rule:nonzero;stroke:none"
           d="m 0,0 -6.4,-2.285 -8.373,3.129 -4.748,1.889 -0.016,0.006 0.047,0.019 0.01,0.003 0.023,-0.003 L 0,0 Z" />
      </g>
      <g
         transform="matrix(1.25,0,0,-1.25,480.74885,559.39828)"
         id="g246">
        <path
           inkscape:connector-curvature="0"
           id="path248"
           style="fill:#201d1c;fill-opacity:1;fill-rule:nonzero;stroke:none"
           d="m 0,0 0.243,-0.779 -10.68,-2.914 -0.003,0.009 3.363,2.312 0.31,3.478 0.913,0.643 0,-2.07 1.797,-1.596 L 0,0 Z" />
      </g>
      <g
         transform="matrix(1.25,0,0,-1.25,468.85311,588.02553)"
         id="g250">
        <path
           inkscape:connector-curvature="0"
           id="path252"
           style="fill:#90191f;fill-opacity:1;fill-rule:nonzero;stroke:none"
           d="m 0,0 7.92,-9.667 -5.934,-2.371 -6.11,8.485 0.9,1.048 1.527,0.869 L 0,0 Z" />
      </g>
      <g
         transform="matrix(1.25,0,0,-1.25,468.31111,538.30515)"
         id="g254">
        <path
           inkscape:connector-curvature="0"
           id="path256"
           style="fill:#ed641b;fill-opacity:1;fill-rule:nonzero;stroke:none"
           d="m 0,0 -4.663,-10.196 4.066,11.1 -3.207,7.878 -0.342,3.596 L 4.227,9.249 0,0 Z" />
      </g>
      <g
         transform="matrix(1.25,0,0,-1.25,467.72398,564.06503)"
         id="g258">
        <path
           inkscape:connector-curvature="0"
           id="path260"
           style="fill:#ed641b;fill-opacity:1;fill-rule:nonzero;stroke:none"
           d="M 0,0 4.257,-10.552 3.939,-10.991 -8.324,-0.866 -4.197,10.402 -2.047,5.073 -0.021,0.05 -0.051,0.031 0,0 Z" />
      </g>
      <g
         transform="matrix(1.25,0,0,-1.25,472.64823,577.80403)"
         id="g262">
        <path
           inkscape:connector-curvature="0"
           id="path264"
           style="fill:#171614;fill-opacity:1;fill-rule:nonzero;stroke:none"
           d="m 0,0 -1.156,-1.618 -11.204,4.419 -0.039,0 -11.205,-4.419 -1.156,1.618 12.264,10.125 0.232,0 L 0,0 Z" />
      </g>
      <g
         transform="matrix(1.25,0,0,-1.25,470.35698,543.00665)"
         id="g266">
        <path
           inkscape:connector-curvature="0"
           id="path268"
           style="fill:#f57f15;fill-opacity:1;fill-rule:nonzero;stroke:none"
           d="M 0,0 1.547,-3.559 0,-7.731 -4.153,-11.773 -6.304,-6.444 -6.3,-6.435 -1.637,3.761 0,0 Z" />
      </g>
      <g
         transform="matrix(1.25,0,0,-1.25,463.6981,592.46653)"
         id="g270">
        <path
           inkscape:connector-curvature="0"
           id="path272"
           style="fill:#b11d48;fill-opacity:1;fill-rule:nonzero;stroke:none"
           d="m 0,0 6.11,-8.485 -2.233,-2.25 -4.753,-2.628 1.776,4.809 -6.083,5.774 0.003,0.004 2.127,0.651 0.737,1.134 L 0,0 Z" />
      </g>
      <g
         transform="matrix(1.25,0,0,-1.25,471.20298,579.82616)"
         id="g274">
        <path
           inkscape:connector-curvature="0"
           id="path276"
           style="fill:#3b1736;fill-opacity:1;fill-rule:nonzero;stroke:none"
           d="m 0,0 -2.727,-3.901 -4.153,2.374 -4.31,-0.539 -0.067,0 -4.31,0.539 -4.154,-2.374 -2.726,3.901 11.204,4.419 0.039,0 L 0,0 Z" />
      </g>
      <g
         transform="matrix(1.25,0,0,-1.25,467.79473,584.70278)"
         id="g278">
        <path
           inkscape:connector-curvature="0"
           id="path280"
           style="fill:#4f1336;fill-opacity:1;fill-rule:nonzero;stroke:none"
           d="m 0,0 0.847,-2.658 -5.694,-1.356 -0.747,-3.188 -0.736,-1.134 -2.127,-0.651 -0.003,-0.004 -0.004,0.004 -0.066,0 -0.004,-0.004 -0.003,0.004 -2.127,0.651 -0.736,1.134 -0.747,3.188 -5.694,1.356 0.847,2.658 6.33,-0.043 2.134,-2.176 0.066,0 2.134,2.176 L 0,0 Z" />
      </g>
      <g
         transform="matrix(1.25,0,0,-1.25,468.85311,588.02553)"
         id="g282">
        <path
           inkscape:connector-curvature="0"
           id="path284"
           style="fill:#36172e;fill-opacity:1;fill-rule:nonzero;stroke:none"
           d="m 0,0 -1.697,-1.636 -1.527,-0.869 -0.9,-1.048 -2.316,-0.99 0.747,3.188 L 0,0 Z" />
      </g>
      <g
         transform="matrix(1.25,0,0,-1.25,467.79473,584.70278)"
         id="g286">
        <path
           inkscape:connector-curvature="0"
           id="path288"
           style="fill:#22151d;fill-opacity:1;fill-rule:nonzero;stroke:none"
           d="m 0,0 -6.33,-0.043 -2.134,-2.176 -0.066,0 -2.134,2.176 -6.33,0.043 4.153,2.375 4.311,-0.54 0.066,0 4.311,0.54 L 0,0 Z" />
      </g>
      <g
         transform="matrix(1.25,0,0,-1.25,463.55648,527.32791)"
         id="g290">
        <path
           inkscape:connector-curvature="0"
           id="path292"
           style="fill:#ec511d;fill-opacity:1;fill-rule:nonzero;stroke:none"
           d="m 0,0 3.207,-7.878 -4.066,-11.1 -0.004,-0.009 -1.63,16.933 L 0,0 Z" />
      </g>
      <g
         transform="matrix(1.25,0,0,-1.25,457.21985,595.94128)"
         id="g294">
        <path
           inkscape:connector-curvature="0"
           id="path296"
           style="fill:#5b1217;fill-opacity:1;fill-rule:nonzero;stroke:none"
           d="m 0,0 6.083,-5.774 -1.776,-4.809 -4.257,-0.193 -0.174,0 -4.257,0.193 -1.776,4.809 6.083,5.774 0.004,0.003 0.066,0 L 0,0 Z" />
      </g>
      <g
         transform="matrix(1.25,0,0,-1.25,463.12798,522.83266)"
         id="g298">
        <path
           inkscape:connector-curvature="0"
           id="path300"
           style="fill:#eb3045;fill-opacity:1;fill-rule:nonzero;stroke:none"
           d="M 0,0 0.343,-3.596 -2.15,-5.65 -4.677,0 -4.851,0 -7.377,-5.65 -9.87,-3.596 -9.527,0 -4.78,1.889 -4.764,1.895 -4.747,1.889 0,0 Z" />
      </g>
      <g
         transform="matrix(1.25,0,0,-1.25,460.43998,529.89503)"
         id="g302">
        <path
           inkscape:connector-curvature="0"
           id="path304"
           style="fill:#d21e27;fill-opacity:1;fill-rule:nonzero;stroke:none"
           d="m 0,0 1.63,-16.934 -4.127,-11.268 -0.232,0 -4.127,11.268 1.629,16.934 2.524,-9.349 0.18,0 L 0,0 Z" />
      </g>
      <g
         transform="matrix(1.25,0,0,-1.25,457.28211,522.83266)"
         id="g306">
        <path
           inkscape:connector-curvature="0"
           id="path308"
           style="fill:#e1252d;fill-opacity:1;fill-rule:nonzero;stroke:none"
           d="m 0,0 2.526,-5.65 -2.523,-9.349 -0.18,0 L -2.7,-5.65 -0.174,0 0,0 Z" />
      </g>
      <g
         transform="matrix(1.25,0,0,-1.25,457.17348,520.4639)"
         id="g310">
        <path
           inkscape:connector-curvature="0"
           id="path312"
           style="fill:#192f4d;fill-opacity:1;fill-rule:nonzero;stroke:none"
           d="m 0,0 -0.017,-0.006 -4.747,-1.889 -8.373,-3.129 -6.4,2.285 19.457,2.758 0.023,0.002 0.01,-0.002 L 0,0 Z" />
      </g>
      <g
         transform="matrix(1.25,0,0,-1.25,457.1271,595.94128)"
         id="g314">
        <path
           inkscape:connector-curvature="0"
           id="path316"
           style="fill:#b11d48;fill-opacity:1;fill-rule:nonzero;stroke:none"
           d="m 0,0 -6.083,-5.774 1.776,-4.809 -4.753,2.627 -2.233,2.25 6.11,8.486 L -2.866,1.789 -2.13,0.655 -0.003,0.003 0,0 Z" />
      </g>
      <g
         transform="matrix(1.25,0,0,-1.25,451.86948,551.06203)"
         id="g318">
        <path
           inkscape:connector-curvature="0"
           id="path320"
           style="fill:#ed641b;fill-opacity:1;fill-rule:nonzero;stroke:none"
           d="m 0,0 4.127,-11.269 -12.264,-10.125 -0.317,0.44 4.257,10.552 0.051,0.031 -0.031,0.018 2.027,5.024 L 0,0 Z" />
      </g>
      <g
         transform="matrix(1.25,0,0,-1.25,453.90685,529.89503)"
         id="g322">
        <path
           inkscape:connector-curvature="0"
           id="path324"
           style="fill:#ec511d;fill-opacity:1;fill-rule:nonzero;stroke:none"
           d="m 0,0 -1.63,-16.934 -0.004,0.01 -4.066,11.1 3.207,7.878 L 0,0 Z" />
      </g>
      <g
         transform="matrix(1.25,0,0,-1.25,452.61048,589.71991)"
         id="g326">
        <path
           inkscape:connector-curvature="0"
           id="path328"
           style="fill:#36172e;fill-opacity:1;fill-rule:nonzero;stroke:none"
           d="M 0,0 0.747,-3.188 -1.569,-2.197 -2.47,-1.15 -3.996,-0.281 -5.693,1.355 0,0 Z" />
      </g>
      <g
         transform="matrix(1.25,0,0,-1.25,451.8646,551.05053)"
         id="g330">
        <path
           inkscape:connector-curvature="0"
           id="path332"
           style="fill:#f57f15;fill-opacity:1;fill-rule:nonzero;stroke:none"
           d="M 0,0 0.004,-0.009 -2.146,-5.338 -6.3,-1.296 -7.847,2.876 -6.3,6.435 -4.663,10.196 0,0 Z" />
      </g>
      <g
         transform="matrix(1.25,0,0,-1.25,446.03573,538.30515)"
         id="g334">
        <path
           inkscape:connector-curvature="0"
           id="path336"
           style="fill:#ed641b;fill-opacity:1;fill-rule:nonzero;stroke:none"
           d="M 0,0 -4.227,9.249 4.146,12.378 3.804,8.782 0.597,0.904 4.663,-10.196 0,0 Z" />
      </g>
      <g
         transform="matrix(1.25,0,0,-1.25,449.52323,591.15728)"
         id="g338">
        <path
           inkscape:connector-curvature="0"
           id="path340"
           style="fill:#90191f;fill-opacity:1;fill-rule:nonzero;stroke:none"
           d="m 0,0 0.9,-1.047 -6.11,-8.486 -5.934,2.371 7.92,9.667 L -1.526,0.869 0,0 Z" />
      </g>
      <g
         transform="matrix(1.25,0,0,-1.25,443.98985,552.6709)"
         id="g342">
        <path
           inkscape:connector-curvature="0"
           id="path344"
           style="fill:#ec511d;fill-opacity:1;fill-rule:nonzero;stroke:none"
           d="M 0,0 4.153,-4.042 2.127,-9.065 -1.236,-6.753 -1.547,-3.275 2.05,-5.8 0.224,-2.178 -6.25,0.851 l -0.003,0 -5.397,2.524 6.393,3.849 L 0,7.731 -1.547,4.172 0,0 Z" />
      </g>
      <g
         transform="matrix(1.25,0,0,-1.25,446.64848,564.00278)"
         id="g346">
        <path
           inkscape:connector-curvature="0"
           id="path348"
           style="fill:#201d1c;fill-opacity:1;fill-rule:nonzero;stroke:none"
           d="m 0,0 -0.004,-0.009 -10.68,2.913 0.244,0.78 4.056,-0.917 1.797,1.596 0,2.069 L -3.674,5.79 -3.363,2.312 0,0 Z" />
      </g>
      <g
         transform="matrix(1.25,0,0,-1.25,446.6436,564.01428)"
         id="g350">
        <path
           inkscape:connector-curvature="0"
           id="path352"
           style="fill:#1c4b4c;fill-opacity:1;fill-rule:nonzero;stroke:none"
           d="m 0,0 -0.017,-0.041 -10.07,-6.351 -11.263,4.385 9.343,5.282 L -10.68,2.914 0,0 Z" />
      </g>
      <g
         transform="matrix(1.25,0,0,-1.25,446.62285,564.06503)"
         id="g354">
        <path
           inkscape:connector-curvature="0"
           id="path356"
           style="fill:#308a88;fill-opacity:1;fill-rule:nonzero;stroke:none"
           d="m 0,0 -4.257,-10.552 0.318,-0.439 -10.538,-8.424 4.407,13.064 L 0,0 Z" />
      </g>
      <g
         transform="matrix(1.25,0,0,-1.25,444.26936,555.39378)"
         id="g358">
        <path
           inkscape:connector-curvature="0"
           id="path360"
           style="fill:#201d1c;fill-opacity:1;fill-rule:nonzero;stroke:none"
           d="m 0,0 1.826,-3.622 -3.597,2.525 -0.913,0.642 -2.16,1.514 -5.047,-0.062 -6.256,-0.078 9.67,2.11 0.003,0 L 0,0 Z" />
      </g>
      <g
         transform="matrix(1.25,0,0,-1.25,443.14385,579.82616)"
         id="g362">
        <path
           inkscape:connector-curvature="0"
           id="path364"
           style="fill:#511643;fill-opacity:1;fill-rule:nonzero;stroke:none"
           d="M 0,0 2.727,-3.901 1.88,-6.56 -6.04,-16.227 -8.486,-14.351 -5.37,-3.633 0,0 Z" />
      </g>
      <g
         transform="matrix(1.25,0,0,-1.25,440.75248,526.74378)"
         id="g366">
        <path
           inkscape:connector-curvature="0"
           id="path368"
           style="fill:#1c425f;fill-opacity:1;fill-rule:nonzero;stroke:none"
           d="M 0,0 4.227,-9.249 2.59,-13.01 -2.667,-13.518 -9.061,-17.367 -6.773,-6.853 0,0 Z" />
      </g>
      <g
         transform="matrix(1.25,0,0,-1.25,441.69861,577.80403)"
         id="g370">
        <path
           inkscape:connector-curvature="0"
           id="path372"
           style="fill:#761c67;fill-opacity:1;fill-rule:nonzero;stroke:none"
           d="M 0,0 1.156,-1.618 -4.214,-5.251 -7.33,-15.968 -10.537,-8.423 0,0 Z" />
      </g>
      <g
         transform="matrix(1.25,0,0,-1.25,440.75248,526.74378)"
         id="g374">
        <path
           inkscape:connector-curvature="0"
           id="path376"
           style="fill:#152940;fill-opacity:1;fill-rule:nonzero;stroke:none"
           d="m 0,0 -6.773,-6.853 -2.288,-10.514 -1.359,8.654 1.586,6.843 -3.68,4.999 L -9.78,1.805 -6.4,2.285 0,0 Z" />
      </g>
      <g
         transform="matrix(1.25,0,0,-1.25,436.17373,551.60778)"
         id="g378">
        <path
           inkscape:connector-curvature="0"
           id="path380"
           style="fill:#192f4d;fill-opacity:1;fill-rule:nonzero;stroke:none"
           d="m 0,0 -9.671,-2.11 3.624,-1.383 2.416,-3.157 -9.343,-5.282 -6.447,-1.69 6.357,10.256 2.5,11.55 3.807,2.994 1.36,-8.654 L 0,0 Z" />
      </g>
      <g
         transform="matrix(1.25,0,0,-1.25,434.03498,572.00378)"
         id="g382">
        <path
           inkscape:connector-curvature="0"
           id="path384"
           style="fill:#319288;fill-opacity:1;fill-rule:nonzero;stroke:none"
           d="m 0,0 -4.406,-13.063 -6.547,4.702 -6.757,11.056 6.447,1.69 L 0,0 Z" />
      </g>
      <g
         transform="matrix(1.25,0,0,-1.25,431.90611,557.54828)"
         id="g386">
        <path
           inkscape:connector-curvature="0"
           id="path388"
           style="fill:#201d1c;fill-opacity:1;fill-rule:nonzero;stroke:none"
           d="M 0,0 1.354,-1.48 1.11,-2.259 -0.217,-1.898 -2.633,1.259 -6.257,2.643 0,2.721 0,0 Z" />
      </g>
      <g
         transform="matrix(1.25,0,0,-1.25,425.11048,522.83266)"
         id="g390">
        <path
           inkscape:connector-curvature="0"
           id="path392"
           style="fill:#90191f;fill-opacity:1;fill-rule:nonzero;stroke:none"
           d="M 0,0 3.68,-4.999 -2.037,-11.758 -2.776,-4.737 0,0 Z" />
      </g>
      <g
         transform="matrix(1.25,0,0,-1.25,429.71011,529.08091)"
         id="g394">
        <path
           inkscape:connector-curvature="0"
           id="path396"
           style="fill:#152940;fill-opacity:1;fill-rule:nonzero;stroke:none"
           d="M 0,0 -1.586,-6.843 -5.394,-9.838 -5.717,-6.759 0,0 Z" />
      </g>
      <g
         transform="matrix(1.25,0,0,-1.25,425.11048,522.83266)"
         id="g398">
        <path
           inkscape:connector-curvature="0"
           id="path400"
           style="fill:#a9183f;fill-opacity:1;fill-rule:nonzero;stroke:none"
           d="m 0,0 -2.776,-4.737 -5.865,0.882 -4.126,3.615 -0.667,-4.603 5.04,-6.357 0,-0.003 -2.946,-9.221 -3.87,6.753 -0.227,3.992 -3.107,5.877 0.443,5.195 4.474,3.684 L -6.293,3.051 0,0 Z" />
      </g>
      <g
         transform="matrix(1.25,0,0,-1.25,422.5641,537.52991)"
         id="g402">
        <path
           inkscape:connector-curvature="0"
           id="path404"
           style="fill:#90191f;fill-opacity:1;fill-rule:nonzero;stroke:none"
           d="m 0,0 0.323,-3.079 -2.5,-11.549 -6.356,-10.256 -0.77,16.217 6.246,5.055 L 0,0 Z" />
      </g>
      <g
         transform="matrix(1.25,0,0,-1.25,421.63998,528.75378)"
         id="g406">
        <path
           inkscape:connector-curvature="0"
           id="path408"
           style="fill:#90191f;fill-opacity:1;fill-rule:nonzero;stroke:none"
           d="M 0,0 0.739,-7.021 -2.317,-10.633 0,0 Z" />
      </g>
      <g
         transform="matrix(1.25,0,0,-1.25,421.63998,528.75378)"
         id="g410">
        <path
           inkscape:connector-curvature="0"
           id="path412"
           style="fill:#201d1c;fill-opacity:1;fill-rule:nonzero;stroke:none"
           d="m 0,0 -2.317,-10.633 -3.3,4.167 0,0.003 -5.04,6.357 L -9.99,4.497 -5.864,0.882 0,0 Z" />
      </g>
      <g
         transform="matrix(1.25,0,0,-1.25,414.61848,536.83666)"
         id="g414">
        <path
           inkscape:connector-curvature="0"
           id="path416"
           style="fill:#201d1c;fill-opacity:1;fill-rule:nonzero;stroke:none"
           d="M 0,0 3.3,-4.167 -2.946,-9.221 0,0 Z" />
      </g>
    </g>
  </g>
</svg>
